%
M48
M72
T01C0.0197
T02C0.0236
T03C0.0315
T04C0.0320
T05C0.0354
T06C0.0400
T07C0.1300
%
T01
X10625Y6875
X13875Y6875
X17125Y6875
X20625Y6875
X29500Y11875
X30000Y15250
X28000Y23250
X27625Y25625
X27750Y21250
X30000Y16875
X23000Y17375
X23375Y13750
X21250Y18250
X15375Y15750
X22625Y21625
X22750Y24625
X24500Y26750
X22000Y25000
X13250Y12625
X3250Y18375
X17125Y9500
X10625Y5000
X14250Y8625
X20500Y7625
X27500Y10000
X29500Y14500
X29500Y16125
X22750Y14625
X11250Y15250
X12875Y14750
X12375Y17750
X12375Y16125
X24250Y21000
X24750Y21000
X25250Y21000
X23250Y22500
X27625Y24000
X27125Y25250
X28125Y27125
X32625Y27125
X22125Y19000
X24500Y22375
X26375Y22375
X26375Y24125
X24500Y24125
X25500Y23250
X25500Y22375
X24500Y23250
X26375Y23250
X25500Y24125
X24875Y23750
X24875Y22750
X26000Y22750
X26000Y23750
X25750Y15375
X26625Y16250
X24875Y16250
X24875Y14500
X26625Y14500
X26625Y15375
X24875Y15375
X25750Y16250
X25750Y14500
X26250Y14875
X26250Y15875
X25250Y15875
X25250Y14875
X31500Y8000
X34750Y8000
X35000Y16250
X31125Y14750
X28625Y23125
X30000Y23250
X31750Y23250
X32500Y26375
X22125Y26875
X18875Y16000
X11500Y12125
X13750Y23750
X17125Y6000
X22125Y13500
X33375Y3500
X30250Y1250
X23750Y1500
X24750Y5125
X27500Y7625
X31125Y11000
X35250Y11250
X31125Y5375
X34625Y5125
X22375Y15500
X14625Y19375
X17750Y16625
X14250Y19125
X18125Y15250
X22625Y16750
X13625Y20125
X16875Y15750
X20500Y16750
X22750Y22250
X21125Y19250
X20000Y18125
X22125Y14625
X10125Y12375
X10125Y11750
X28000Y14875
X13625Y9125
X8000Y9000
X27625Y13375
X29000Y16375
X17375Y8500
X28500Y15750
X16625Y9000
X1125Y14750
X10625Y20750
X11000Y21625
X15375Y19375
X26375Y17625
X26875Y17625
X22500Y17750
X20875Y23250
X18750Y23250
X14250Y15875
X13750Y15875
X8000Y625
X13375Y625
X16125Y500
X21000Y500
X26125Y20750
X15500Y14125
X16125Y15250
X17500Y17000
X19125Y17875
X9875Y18125
X22500Y22875
X9375Y18375
X24625Y25375
X15375Y14500
X15375Y16375
X28250Y18875
X27875Y26375
X26625Y13125
T02
X4375Y10750
X3875Y10750
X3375Y10750
T03
X18750Y4375
X18750Y2375
X15500Y4375
X15500Y2375
X12250Y4375
X12250Y2375
X9000Y4375
X9000Y2375
X33875Y21625
X33875Y19625
X34000Y26750
X34000Y24750
T04
X20475Y12750
X21275Y12750
X850Y8125
X1650Y8125
X4900Y7125
X4100Y7125
X9265Y20165
X9265Y19365
X22650Y9125
X21850Y9125
X23725Y11125
X24525Y11125
X23725Y9125
X24525Y9125
X26225Y9500
X27025Y9500
X28900Y9500
X28100Y9500
X1475Y26375
X2275Y26375
X16475Y21004
X17818Y19660
X1000Y22125
X1000Y21125
X1000Y20125
X1000Y19125
X4000Y19125
X4000Y20125
X4000Y21125
X4000Y22125
T05
X18686Y25375
X20064Y25375
T06
X6000Y3375
X5000Y3375
X4000Y3375
X4375Y13500
X4375Y14500
X4375Y15500
X4375Y16500
X4375Y17500
X11750Y22875
X10750Y22875
X9750Y22875
X22000Y5750
X22000Y4750
X22000Y3750
X22000Y2750
X8250Y24625
X7250Y24625
X6250Y24625
X5250Y24625
X4250Y24625
X3250Y24625
X2250Y24625
X1250Y24625
X16250Y24625
X15250Y24625
X14250Y24625
X13250Y24625
X12250Y24625
X11250Y24625
X10250Y24625
X9250Y24625
X8759Y11439
X8052Y12146
X7345Y12854
X6638Y13561
X1750Y3375
X1750Y4375
X1750Y5375
X750Y3375
X750Y4375
X750Y5375
X31875Y12875
X32875Y12875
X33875Y12875
X34875Y12875
X28625Y5625
X27625Y5625
X26625Y5625
X31250Y16375
X31250Y17375
X31250Y18375
X16524Y13628
X15817Y12921
X15110Y12213
X14403Y11506
T07
X5000Y-2525
M30
