G75*
G70*
%OFA0B0*%
%FSLAX24Y24*%
%IPPOS*%
%LPD*%
%AMOC8*
5,1,8,0,0,1.08239X$1,22.5*
%
%ADD10C,0.0000*%
%ADD11R,0.0512X0.0591*%
%ADD12R,0.0630X0.0512*%
%ADD13R,0.0630X0.0709*%
%ADD14R,0.0709X0.0630*%
%ADD15R,0.0591X0.0512*%
%ADD16R,0.0512X0.0630*%
D10*
X000786Y004283D02*
X000786Y031905D01*
X036906Y031905D01*
X036906Y004283D01*
X000786Y004283D01*
X005136Y001758D02*
X005138Y001808D01*
X005144Y001858D01*
X005154Y001908D01*
X005167Y001956D01*
X005184Y002004D01*
X005205Y002050D01*
X005229Y002094D01*
X005257Y002136D01*
X005288Y002176D01*
X005322Y002213D01*
X005359Y002248D01*
X005398Y002279D01*
X005439Y002308D01*
X005483Y002333D01*
X005529Y002355D01*
X005576Y002373D01*
X005624Y002387D01*
X005673Y002398D01*
X005723Y002405D01*
X005773Y002408D01*
X005824Y002407D01*
X005874Y002402D01*
X005924Y002393D01*
X005972Y002381D01*
X006020Y002364D01*
X006066Y002344D01*
X006111Y002321D01*
X006154Y002294D01*
X006194Y002264D01*
X006232Y002231D01*
X006267Y002195D01*
X006300Y002156D01*
X006329Y002115D01*
X006355Y002072D01*
X006378Y002027D01*
X006397Y001980D01*
X006412Y001932D01*
X006424Y001883D01*
X006432Y001833D01*
X006436Y001783D01*
X006436Y001733D01*
X006432Y001683D01*
X006424Y001633D01*
X006412Y001584D01*
X006397Y001536D01*
X006378Y001489D01*
X006355Y001444D01*
X006329Y001401D01*
X006300Y001360D01*
X006267Y001321D01*
X006232Y001285D01*
X006194Y001252D01*
X006154Y001222D01*
X006111Y001195D01*
X006066Y001172D01*
X006020Y001152D01*
X005972Y001135D01*
X005924Y001123D01*
X005874Y001114D01*
X005824Y001109D01*
X005773Y001108D01*
X005723Y001111D01*
X005673Y001118D01*
X005624Y001129D01*
X005576Y001143D01*
X005529Y001161D01*
X005483Y001183D01*
X005439Y001208D01*
X005398Y001237D01*
X005359Y001268D01*
X005322Y001303D01*
X005288Y001340D01*
X005257Y001380D01*
X005229Y001422D01*
X005205Y001466D01*
X005184Y001512D01*
X005167Y001560D01*
X005154Y001608D01*
X005144Y001658D01*
X005138Y001708D01*
X005136Y001758D01*
X019295Y029658D02*
X019297Y029684D01*
X019303Y029710D01*
X019313Y029735D01*
X019326Y029758D01*
X019342Y029778D01*
X019362Y029796D01*
X019384Y029811D01*
X019407Y029823D01*
X019433Y029831D01*
X019459Y029835D01*
X019485Y029835D01*
X019511Y029831D01*
X019537Y029823D01*
X019561Y029811D01*
X019582Y029796D01*
X019602Y029778D01*
X019618Y029758D01*
X019631Y029735D01*
X019641Y029710D01*
X019647Y029684D01*
X019649Y029658D01*
X019647Y029632D01*
X019641Y029606D01*
X019631Y029581D01*
X019618Y029558D01*
X019602Y029538D01*
X019582Y029520D01*
X019560Y029505D01*
X019537Y029493D01*
X019511Y029485D01*
X019485Y029481D01*
X019459Y029481D01*
X019433Y029485D01*
X019407Y029493D01*
X019383Y029505D01*
X019362Y029520D01*
X019342Y029538D01*
X019326Y029558D01*
X019313Y029581D01*
X019303Y029606D01*
X019297Y029632D01*
X019295Y029658D01*
X020673Y029658D02*
X020675Y029684D01*
X020681Y029710D01*
X020691Y029735D01*
X020704Y029758D01*
X020720Y029778D01*
X020740Y029796D01*
X020762Y029811D01*
X020785Y029823D01*
X020811Y029831D01*
X020837Y029835D01*
X020863Y029835D01*
X020889Y029831D01*
X020915Y029823D01*
X020939Y029811D01*
X020960Y029796D01*
X020980Y029778D01*
X020996Y029758D01*
X021009Y029735D01*
X021019Y029710D01*
X021025Y029684D01*
X021027Y029658D01*
X021025Y029632D01*
X021019Y029606D01*
X021009Y029581D01*
X020996Y029558D01*
X020980Y029538D01*
X020960Y029520D01*
X020938Y029505D01*
X020915Y029493D01*
X020889Y029485D01*
X020863Y029481D01*
X020837Y029481D01*
X020811Y029485D01*
X020785Y029493D01*
X020761Y029505D01*
X020740Y029520D01*
X020720Y029538D01*
X020704Y029558D01*
X020691Y029581D01*
X020681Y029606D01*
X020675Y029632D01*
X020673Y029658D01*
D11*
X024201Y024783D03*
X024871Y024783D03*
X020621Y005658D03*
X019951Y005658D03*
X018746Y005658D03*
X018076Y005658D03*
X012871Y005658D03*
X012201Y005658D03*
X010871Y005658D03*
X010201Y005658D03*
X002371Y010908D03*
X001701Y010908D03*
D12*
X021036Y026034D03*
X021036Y026782D03*
X030036Y030284D03*
X030036Y031032D03*
X027161Y016907D03*
X027161Y016159D03*
X027161Y012782D03*
X027161Y012034D03*
X029661Y012034D03*
X029661Y012782D03*
D13*
X022712Y005658D03*
X021610Y005658D03*
X018462Y007658D03*
X017360Y007658D03*
X017087Y005658D03*
X015985Y005658D03*
X014962Y005658D03*
X013860Y005658D03*
X011962Y007533D03*
X010860Y007533D03*
X009087Y005658D03*
X007985Y005658D03*
D14*
X035911Y021982D03*
X035911Y023085D03*
X035911Y024357D03*
X035911Y025460D03*
X035911Y027232D03*
X035911Y028335D03*
X035911Y029607D03*
X035911Y030710D03*
D15*
X034786Y027993D03*
X034786Y027324D03*
X034661Y022743D03*
X034661Y022074D03*
D16*
X027660Y025033D03*
X026912Y025033D03*
M02*
